# xmcd
#
# Track frame offsets:
#	150
#	20526
#	33767
#	51879
#	62520
#	70311
#	89697
#	121063
#	141875
#	147925
#	151224
#
# Disc length: 3026 seconds
#
# Revision: 1
# Processed by: cddbd v1.5.2PL0 Copyright (c) Steve Scherf et al.
# Submitted via: audiograbber 1.83.01
#
DISCID=930bd00b
DTITLE=Various Artist - Laya Project - CD2
DYEAR=2011
DGENRE=Folklore
TTITLE0=Glorious sun
TTITLE1=Sunrise in Injumbakkam
TTITLE2=Rain Buddha
TTITLE3=PremJam
TTITLE4=Poothai
TTITLE5=Sunset in Akkarai
TTITLE6=Nium Nium
TTITLE7=Katalu Talu
TTITLE8=Going to Seville
TTITLE9=Music
TTITLE10=Laya Mantra
EXTD=
EXTT0=
EXTT1=
EXTT2=
EXTT3=
EXTT4=
EXTT5=
EXTT6=
EXTT7=
EXTT8=
EXTT9=
EXTT10=
PLAYORDER=
